<svg xmlns="http://www.w3.org/2000/svg" width="323" height="66" viewBox="0 0 323 66">
  <g fill="none" fill-rule="evenodd">
    <path fill="#CB292B" d="M32.9591837,66 C14.7563292,66 0,51.2253967 0,33 C0,14.7746033 14.7563292,0 32.9591837,0 C51.1620382,0 65.9183673,14.7746033 65.9183673,33 C65.9183673,51.2253967 51.1620382,66 32.9591837,66 Z M54.0184774,15.62721 L46.6473164,15.62721 L38.2201822,41.2686145 L31.8494078,22.5121597 L11.6372273,22.5121597 L11.6372273,26.8735981 L25.9687592,26.8735981 L27.3911221,30.8807227 L15.2556909,30.8807227 L15.2556909,35.2513438 L28.9435885,35.2513438 L30.1076372,38.5293963 L11.3405361,38.5293963 L11.3405361,42.9020965 L31.6592432,42.9020965 L34.2762876,50.2739029 L41.6939141,50.2739029 L54.0184774,15.62721 Z"/>
    <polyline fill="#CB292B" points="74.616 50.412 74.616 15.6 100.145 15.6 100.145 20.233 79.592 20.233 79.592 30.547 97.977 30.547 97.977 35.18 79.592 35.18 79.592 45.779 100.384 45.779 100.384 50.412 74.616 50.412"/>
    <polygon fill="#CB292B" points="113.962 40.614 106.729 50.4 101.275 50.4 111.191 37.132 101.653 24.3 107.195 24.3 114.057 33.562 120.918 24.3 126.377 24.3 116.784 37.04 126.743 50.4 121.15 50.4"/>
    <path fill="#CB292B" d="M140.520193 28.264324C136.55562 28.264324 132.277359 31.6388849 132.277359 37.0898591L132.277359 37.1816944C132.277359 42.7385128 136.468657 46.0570385 140.520193 46.0570385 145.231715 46.0570385 148.522327 42.4272064 148.522327 37.23306L148.522327 37.136555C148.522327 31.9922176 145.155623 28.264324 140.520193 28.264324M127.641929 57.5099991L127.641929 24.3698816 132.420227 24.3698816 132.420227 28.1335754C134.810152 25.2524351 137.690795 23.85 141.178626 23.85 147.101416 23.85 153.395351 28.4900211 153.395351 37.0898591L153.395351 37.1816944C153.395351 45.812663 147.101416 50.4682494 141.178626 50.4682494 137.69856 50.4682494 134.760458 49.096945 132.420227 46.3854667L132.420227 57.5099991 127.641929 57.5099991M154.308905 50.3967438L154.308905 24.3785455 159.170163 24.3785455 159.170163 29.1407908C161.316508 25.8477488 164.595252 23.9400009 168.271993 23.9400009 168.422031 23.9400009 168.57207 23.9431673 168.723688 23.9495001L169.28436 23.9716648 169.28436 29.1107102 168.412555 29.1107102C162.797944 29.1107102 159.170163 33.3489186 159.170163 39.9112547L159.170163 50.3967438 154.308905 50.3967438M188.169783 35.337223C187.659364 31.8853762 185.599459 28.4228709 181.194055 28.4228709 177.628717 28.4228709 174.778877 31.2321595 174.093761 35.337223L188.169783 35.337223 188.169783 35.337223zM181.748529 50.3764336C174.645196 50.3764336 169.290353 44.7654696 169.290353 37.331894 169.290353 29.8967958 174.447712 24.2873545 181.286721 24.2873545 188.271563 24.2873545 192.961039 29.6044471 192.961039 37.5161347 192.961039 37.8511176 192.961039 38.23178 192.913947 38.8119095L192.871412 39.3265651 174.089204 39.3265651C174.756091 43.4331512 177.803414 46.1526035 181.841194 46.1526035 184.612041 46.1526035 186.872468 45.1354735 188.949084 42.9535166L189.325822 42.556105 192.364031 45.2831705 191.987293 45.7034218C189.099475 48.9329617 185.939738 50.3764336 181.748529 50.3764336L181.748529 50.3764336zM194.270612 46.7628127L193.859926 46.4292126 196.307246 42.9677291 196.772894 43.3166319C199.340825 45.2478398 202.091961 46.2700639 204.728594 46.2700639 207.356066 46.2700639 209.120946 44.9677994 209.120946 43.0274098L209.120946 42.9325328C209.120946 40.9661285 206.70874 40.1321283 203.556078 39.2522198 200.038532 38.248359 195.220227 36.8787623 195.220227 31.9237298L195.220227 31.8319132C195.220227 27.4476735 198.806475 24.3901828 203.939283 24.3901828 206.940801 24.3901828 210.278195 25.4169977 212.87208 27.1309064L213.32246 27.4323707 211.12094 31.0881993 210.632392 30.7729625C208.441559 29.3559272 205.968285 28.5433509 203.846154 28.5433509 201.415627 28.5433509 199.778991 29.715542 199.778991 31.4600562L199.778991 31.5534031C199.778991 33.3882036 202.533181 34.2283249 205.450729 35.1189453L205.542332 35.1464903C208.763696 36.1136245 213.635436 37.5780983 213.635436 42.5591455L213.635436 42.6570831C213.635436 47.3014697 209.978959 50.4217018 204.543862 50.4217018 200.983567 50.4217018 197.047702 49.0199693 194.270612 46.7628127zM225.218259 50.4217018C221.657964 50.4217018 217.720572 49.0199693 214.941955 46.7628127L214.534323 46.4292126 216.980117 42.9677291 217.444237 43.3166319C220.013695 45.2478398 222.766358 46.2700639 225.402991 46.2700639 228.028937 46.2700639 229.795343 44.9677994 229.795343 43.0274098L229.795343 42.9325328C229.795343 40.9661285 227.383137 40.1321283 224.230475 39.2522198 220.711403 38.248359 215.893097 36.8787623 215.893097 31.9237298L215.893097 31.8319132C215.893097 27.4476735 219.480872 24.3901828 224.61368 24.3901828 227.610617 24.3901828 230.952592 25.4169977 233.546477 27.1309064L233.996857 27.4323707 231.795337 31.0881993 231.306789 30.7729625C229.11443 29.3559272 226.639628 28.5433509 224.520551 28.5433509 222.086971 28.5433509 220.453388 29.715542 220.453388 31.4600562L220.453388 31.5534031C220.453388 33.3882036 223.207578 34.2283249 226.123599 35.1189453L226.216729 35.1464903C229.436566 36.1136245 234.309833 37.5780983 234.309833 42.5591455L234.309833 42.6570831C234.309833 47.3014697 230.653356 50.4217018 225.218259 50.4217018M278.930244 33.9112134C284.120296 33.9112134 287.476446 31.2372 287.476446 27.0955664L287.476446 27.0005748C287.476446 22.7307025 284.430384 20.2799193 279.119742 20.2799193L271.282982 20.2799193 271.282982 33.9112134 278.930244 33.9112134 278.930244 33.9112134zM266.37013 50.4112538L266.37013 15.6 279.404772 15.6C287.322969 15.6 292.437848 20.0171092 292.437848 26.8565042L292.437848 26.9514958C292.437848 34.9608706 285.583033 38.543637 278.786163 38.543637L271.282982 38.543637 271.282982 50.4112538 266.37013 50.4112538 266.37013 50.4112538z"/>
    <polyline fill="#CB292B" points="319.014 50.411 298.209 23.932 298.209 50.411 293.351 50.411 293.351 15.6 297.764 15.6 318.041 41.454 318.041 15.6 322.902 15.6 322.902 50.411 319.014 50.411"/>
    <polygon fill="#CB292B" points="251.065 50.4 265.519 15.624 259.694 15.624 248.117 44.136 236.611 15.624 230.714 15.624 245.168 50.4"/>
  </g>
</svg>
